<?xml version="1.0" encoding="UTF-8" standalone="no"?>
<!-- Created by diasvg.py -->
<svg width="50.647cm" height="29.910cm" viewBox="5.995 0.995 56.642 30.905"
 xmlns="http://www.w3.org/2000/svg"
 xmlns:xlink="http://www.w3.org/1999/xlink">
<rect x="18.100" y="1.000" width="9.800" height="1.810" fill="#82CC00" stroke="none" stroke-width="0"/>
<path stroke="none" fill="#82CC00" d ="M 18.100,1.000 A 0.100,0.100 0 0,0 18.000,1.100 "/>
<path stroke="none" fill="#82CC00" d ="M 28.000,1.100 A 0.100,0.100 0 0,0 27.900,1.000 "/>
<rect x="18.000" y="1.100" width="10.000" height="1.610" fill="#82CC00" stroke="none" stroke-width="0"/>
<path stroke="none" fill="#82CC00" d ="M 18.000,2.710 A 0.100,0.100 0 0,0 18.100,2.810 "/>
<path stroke="none" fill="#82CC00" d ="M 27.900,2.810 A 0.100,0.100 0 0,0 28.000,2.710 "/>
<line x1="18.100" y1="1.000" x2="27.900" y2="1.000" stroke="#000000" stroke-width="0.010" />
<line x1="18.100" y1="2.810" x2="27.900" y2="2.810" stroke="#000000" stroke-width="0.010" />
<path stroke="#000000" fill="none" stroke-width="0.010"  d ="M 18.100,1.000 A 0.100,0.100 0 0,0 18.000,1.100 "/>
<path stroke="#000000" fill="none" stroke-width="0.010"  d ="M 28.000,1.100 A 0.100,0.100 0 0,0 27.900,1.000 "/>
<line x1="18.000" y1="1.100" x2="18.000" y2="2.710" stroke="#000000" stroke-width="0.010" />
<line x1="28.000" y1="1.100" x2="28.000" y2="2.710" stroke="#000000" stroke-width="0.010" />
<path stroke="#000000" fill="none" stroke-width="0.010"  d ="M 18.000,2.710 A 0.100,0.100 0 0,0 18.100,2.810 "/>
<path stroke="#000000" fill="none" stroke-width="0.010"  d ="M 27.900,2.810 A 0.100,0.100 0 0,0 28.000,2.710 "/>
<text x="23.000" y="2.172"  fill="#FFFFFF" text-anchor="middle" font-size="0.80" font-family="Fira Code" font-style="normal" font-weight="700">
定义原型图</text>
<rect x="6.100" y="5.000" width="9.800" height="1.900" fill="#88CC00" stroke="none" stroke-width="0"/>
<path stroke="none" fill="#88CC00" d ="M 6.100,5.000 A 0.100,0.100 0 0,0 6.000,5.100 "/>
<path stroke="none" fill="#88CC00" d ="M 16.000,5.100 A 0.100,0.100 0 0,0 15.900,5.000 "/>
<rect x="6.000" y="5.100" width="10.000" height="1.700" fill="#88CC00" stroke="none" stroke-width="0"/>
<path stroke="none" fill="#88CC00" d ="M 6.000,6.800 A 0.100,0.100 0 0,0 6.100,6.900 "/>
<path stroke="none" fill="#88CC00" d ="M 15.900,6.900 A 0.100,0.100 0 0,0 16.000,6.800 "/>
<line x1="6.100" y1="5.000" x2="15.900" y2="5.000" stroke="#000000" stroke-width="0.010" />
<line x1="6.100" y1="6.900" x2="15.900" y2="6.900" stroke="#000000" stroke-width="0.010" />
<path stroke="#000000" fill="none" stroke-width="0.010"  d ="M 6.100,5.000 A 0.100,0.100 0 0,0 6.000,5.100 "/>
<path stroke="#000000" fill="none" stroke-width="0.010"  d ="M 16.000,5.100 A 0.100,0.100 0 0,0 15.900,5.000 "/>
<line x1="6.000" y1="5.100" x2="6.000" y2="6.800" stroke="#000000" stroke-width="0.010" />
<line x1="16.000" y1="5.100" x2="16.000" y2="6.800" stroke="#000000" stroke-width="0.010" />
<path stroke="#000000" fill="none" stroke-width="0.010"  d ="M 6.000,6.800 A 0.100,0.100 0 0,0 6.100,6.900 "/>
<path stroke="#000000" fill="none" stroke-width="0.010"  d ="M 15.900,6.900 A 0.100,0.100 0 0,0 16.000,6.800 "/>
<text x="11.000" y="6.217"  fill="#FFFFFF" text-anchor="middle" font-size="0.80" font-family="Fira Code" font-style="normal" font-weight="700">
定义数据库</text>
<rect x="18.100" y="9.000" width="9.800" height="2.000" fill="#88CC00" stroke="none" stroke-width="0"/>
<path stroke="none" fill="#88CC00" d ="M 18.100,9.000 A 0.100,0.100 0 0,0 18.000,9.100 "/>
<path stroke="none" fill="#88CC00" d ="M 28.000,9.100 A 0.100,0.100 0 0,0 27.900,9.000 "/>
<rect x="18.000" y="9.100" width="10.000" height="1.800" fill="#88CC00" stroke="none" stroke-width="0"/>
<path stroke="none" fill="#88CC00" d ="M 18.000,10.900 A 0.100,0.100 0 0,0 18.100,11.000 "/>
<path stroke="none" fill="#88CC00" d ="M 27.900,11.000 A 0.100,0.100 0 0,0 28.000,10.900 "/>
<line x1="18.100" y1="9.000" x2="27.900" y2="9.000" stroke="#000000" stroke-width="0.010" />
<line x1="18.100" y1="11.000" x2="27.900" y2="11.000" stroke="#000000" stroke-width="0.010" />
<path stroke="#000000" fill="none" stroke-width="0.010"  d ="M 18.100,9.000 A 0.100,0.100 0 0,0 18.000,9.100 "/>
<path stroke="#000000" fill="none" stroke-width="0.010"  d ="M 28.000,9.100 A 0.100,0.100 0 0,0 27.900,9.000 "/>
<line x1="18.000" y1="9.100" x2="18.000" y2="10.900" stroke="#000000" stroke-width="0.010" />
<line x1="28.000" y1="9.100" x2="28.000" y2="10.900" stroke="#000000" stroke-width="0.010" />
<path stroke="#000000" fill="none" stroke-width="0.010"  d ="M 18.000,10.900 A 0.100,0.100 0 0,0 18.100,11.000 "/>
<path stroke="#000000" fill="none" stroke-width="0.010"  d ="M 27.900,11.000 A 0.100,0.100 0 0,0 28.000,10.900 "/>
<text x="23.000" y="10.267"  fill="#FFFFFF" text-anchor="middle" font-size="0.80" font-family="Fira Code" font-style="normal" font-weight="700">
定义路由</text>
<rect x="30.100" y="5.000" width="9.800" height="1.900" fill="#88CC00" stroke="none" stroke-width="0"/>
<path stroke="none" fill="#88CC00" d ="M 30.100,5.000 A 0.100,0.100 0 0,0 30.000,5.100 "/>
<path stroke="none" fill="#88CC00" d ="M 40.000,5.100 A 0.100,0.100 0 0,0 39.900,5.000 "/>
<rect x="30.000" y="5.100" width="10.000" height="1.700" fill="#88CC00" stroke="none" stroke-width="0"/>
<path stroke="none" fill="#88CC00" d ="M 30.000,6.800 A 0.100,0.100 0 0,0 30.100,6.900 "/>
<path stroke="none" fill="#88CC00" d ="M 39.900,6.900 A 0.100,0.100 0 0,0 40.000,6.800 "/>
<line x1="30.100" y1="5.000" x2="39.900" y2="5.000" stroke="#000000" stroke-width="0.010" />
<line x1="30.100" y1="6.900" x2="39.900" y2="6.900" stroke="#000000" stroke-width="0.010" />
<path stroke="#000000" fill="none" stroke-width="0.010"  d ="M 30.100,5.000 A 0.100,0.100 0 0,0 30.000,5.100 "/>
<path stroke="#000000" fill="none" stroke-width="0.010"  d ="M 40.000,5.100 A 0.100,0.100 0 0,0 39.900,5.000 "/>
<line x1="30.000" y1="5.100" x2="30.000" y2="6.800" stroke="#000000" stroke-width="0.010" />
<line x1="40.000" y1="5.100" x2="40.000" y2="6.800" stroke="#000000" stroke-width="0.010" />
<path stroke="#000000" fill="none" stroke-width="0.010"  d ="M 30.000,6.800 A 0.100,0.100 0 0,0 30.100,6.900 "/>
<path stroke="#000000" fill="none" stroke-width="0.010"  d ="M 39.900,6.900 A 0.100,0.100 0 0,0 40.000,6.800 "/>
<text x="35.000" y="6.217"  fill="#FFFFFF" text-anchor="middle" font-size="0.80" font-family="Fira Code" font-style="normal" font-weight="700">
定义算法，图像处理</text>
<rect x="18.100" y="17.000" width="9.800" height="1.900" fill="#0088CC" stroke="none" stroke-width="0"/>
<path stroke="none" fill="#0088CC" d ="M 18.100,17.000 A 0.100,0.100 0 0,0 18.000,17.100 "/>
<path stroke="none" fill="#0088CC" d ="M 28.000,17.100 A 0.100,0.100 0 0,0 27.900,17.000 "/>
<rect x="18.000" y="17.100" width="10.000" height="1.700" fill="#0088CC" stroke="none" stroke-width="0"/>
<path stroke="none" fill="#0088CC" d ="M 18.000,18.800 A 0.100,0.100 0 0,0 18.100,18.900 "/>
<path stroke="none" fill="#0088CC" d ="M 27.900,18.900 A 0.100,0.100 0 0,0 28.000,18.800 "/>
<line x1="18.100" y1="17.000" x2="27.900" y2="17.000" stroke="#000000" stroke-width="0.010" />
<line x1="18.100" y1="18.900" x2="27.900" y2="18.900" stroke="#000000" stroke-width="0.010" />
<path stroke="#000000" fill="none" stroke-width="0.010"  d ="M 18.100,17.000 A 0.100,0.100 0 0,0 18.000,17.100 "/>
<path stroke="#000000" fill="none" stroke-width="0.010"  d ="M 28.000,17.100 A 0.100,0.100 0 0,0 27.900,17.000 "/>
<line x1="18.000" y1="17.100" x2="18.000" y2="18.800" stroke="#000000" stroke-width="0.010" />
<line x1="28.000" y1="17.100" x2="28.000" y2="18.800" stroke="#000000" stroke-width="0.010" />
<path stroke="#000000" fill="none" stroke-width="0.010"  d ="M 18.000,18.800 A 0.100,0.100 0 0,0 18.100,18.900 "/>
<path stroke="#000000" fill="none" stroke-width="0.010"  d ="M 27.900,18.900 A 0.100,0.100 0 0,0 28.000,18.800 "/>
<text x="23.000" y="18.217"  fill="#FFFFFF" text-anchor="middle" font-size="0.80" font-family="Fira Code" font-style="normal" font-weight="700">
构建任务池，设定里程碑</text>
<rect x="30.100" y="25.000" width="26.437" height="1.900" fill="#0088CC" stroke="none" stroke-width="0"/>
<path stroke="none" fill="#0088CC" d ="M 30.100,25.000 A 0.100,0.100 0 0,0 30.000,25.100 "/>
<path stroke="none" fill="#0088CC" d ="M 56.637,25.100 A 0.100,0.100 0 0,0 56.537,25.000 "/>
<rect x="30.000" y="25.100" width="26.637" height="1.700" fill="#0088CC" stroke="none" stroke-width="0"/>
<path stroke="none" fill="#0088CC" d ="M 30.000,26.800 A 0.100,0.100 0 0,0 30.100,26.900 "/>
<path stroke="none" fill="#0088CC" d ="M 56.537,26.900 A 0.100,0.100 0 0,0 56.637,26.800 "/>
<line x1="30.100" y1="25.000" x2="56.537" y2="25.000" stroke="#000000" stroke-width="0.010" />
<line x1="30.100" y1="26.900" x2="56.537" y2="26.900" stroke="#000000" stroke-width="0.010" />
<path stroke="#000000" fill="none" stroke-width="0.010"  d ="M 30.100,25.000 A 0.100,0.100 0 0,0 30.000,25.100 "/>
<path stroke="#000000" fill="none" stroke-width="0.010"  d ="M 56.637,25.100 A 0.100,0.100 0 0,0 56.537,25.000 "/>
<line x1="30.000" y1="25.100" x2="30.000" y2="26.800" stroke="#000000" stroke-width="0.010" />
<line x1="56.637" y1="25.100" x2="56.637" y2="26.800" stroke="#000000" stroke-width="0.010" />
<path stroke="#000000" fill="none" stroke-width="0.010"  d ="M 30.000,26.800 A 0.100,0.100 0 0,0 30.100,26.900 "/>
<path stroke="#000000" fill="none" stroke-width="0.010"  d ="M 56.537,26.900 A 0.100,0.100 0 0,0 56.637,26.800 "/>
<text x="43.319" y="26.217"  fill="#FFFFFF" text-anchor="middle" font-size="0.80" font-family="Fira Code" font-style="normal" font-weight="700">
周评估 + 反馈 / 回答 + 日志记录 + 头脑风暴 + 聊天室讨论 + 动态例会 + issure</text>
<line x1="20.302" y1="2.815" x2="13.845" y2="4.991" stroke="#000000" stroke-width="0.010" />
<polyline fill="none" stroke="#000000" stroke-width="0.010"  points="14.229,4.598 13.835,4.994 14.388,5.072 "/>
<line x1="13.827" y1="6.904" x2="20.001" y2="8.988" stroke="#000000" stroke-width="0.010" />
<polyline fill="none" stroke="#000000" stroke-width="0.010"  points="19.458,9.068 20.011,8.991 19.618,8.595 "/>
<rect x="18.100" y="25.000" width="9.800" height="1.900" fill="#FFAA0B" stroke="none" stroke-width="0"/>
<path stroke="none" fill="#FFAA0B" d ="M 18.100,25.000 A 0.100,0.100 0 0,0 18.000,25.100 "/>
<path stroke="none" fill="#FFAA0B" d ="M 28.000,25.100 A 0.100,0.100 0 0,0 27.900,25.000 "/>
<rect x="18.000" y="25.100" width="10.000" height="1.700" fill="#FFAA0B" stroke="none" stroke-width="0"/>
<path stroke="none" fill="#FFAA0B" d ="M 18.000,26.800 A 0.100,0.100 0 0,0 18.100,26.900 "/>
<path stroke="none" fill="#FFAA0B" d ="M 27.900,26.900 A 0.100,0.100 0 0,0 28.000,26.800 "/>
<line x1="18.100" y1="25.000" x2="27.900" y2="25.000" stroke="#000000" stroke-width="0.010" />
<line x1="18.100" y1="26.900" x2="27.900" y2="26.900" stroke="#000000" stroke-width="0.010" />
<path stroke="#000000" fill="none" stroke-width="0.010"  d ="M 18.100,25.000 A 0.100,0.100 0 0,0 18.000,25.100 "/>
<path stroke="#000000" fill="none" stroke-width="0.010"  d ="M 28.000,25.100 A 0.100,0.100 0 0,0 27.900,25.000 "/>
<line x1="18.000" y1="25.100" x2="18.000" y2="26.800" stroke="#000000" stroke-width="0.010" />
<line x1="28.000" y1="25.100" x2="28.000" y2="26.800" stroke="#000000" stroke-width="0.010" />
<path stroke="#000000" fill="none" stroke-width="0.010"  d ="M 18.000,26.800 A 0.100,0.100 0 0,0 18.100,26.900 "/>
<path stroke="#000000" fill="none" stroke-width="0.010"  d ="M 27.900,26.900 A 0.100,0.100 0 0,0 28.000,26.800 "/>
<text x="23.000" y="26.149"  fill="#FFFFFF" text-anchor="middle" font-size="0.80" font-family="Fira Code" font-style="normal" font-weight="700">
In Action</text>
<rect x="18.100" y="21.000" width="9.800" height="1.900" fill="#FFAA0B" stroke="none" stroke-width="0"/>
<path stroke="none" fill="#FFAA0B" d ="M 18.100,21.000 A 0.100,0.100 0 0,0 18.000,21.100 "/>
<path stroke="none" fill="#FFAA0B" d ="M 28.000,21.100 A 0.100,0.100 0 0,0 27.900,21.000 "/>
<rect x="18.000" y="21.100" width="10.000" height="1.700" fill="#FFAA0B" stroke="none" stroke-width="0"/>
<path stroke="none" fill="#FFAA0B" d ="M 18.000,22.800 A 0.100,0.100 0 0,0 18.100,22.900 "/>
<path stroke="none" fill="#FFAA0B" d ="M 27.900,22.900 A 0.100,0.100 0 0,0 28.000,22.800 "/>
<line x1="18.100" y1="21.000" x2="27.900" y2="21.000" stroke="#000000" stroke-width="0.010" />
<line x1="18.100" y1="22.900" x2="27.900" y2="22.900" stroke="#000000" stroke-width="0.010" />
<path stroke="#000000" fill="none" stroke-width="0.010"  d ="M 18.100,21.000 A 0.100,0.100 0 0,0 18.000,21.100 "/>
<path stroke="#000000" fill="none" stroke-width="0.010"  d ="M 28.000,21.100 A 0.100,0.100 0 0,0 27.900,21.000 "/>
<line x1="18.000" y1="21.100" x2="18.000" y2="22.800" stroke="#000000" stroke-width="0.010" />
<line x1="28.000" y1="21.100" x2="28.000" y2="22.800" stroke="#000000" stroke-width="0.010" />
<path stroke="#000000" fill="none" stroke-width="0.010"  d ="M 18.000,22.800 A 0.100,0.100 0 0,0 18.100,22.900 "/>
<path stroke="#000000" fill="none" stroke-width="0.010"  d ="M 27.900,22.900 A 0.100,0.100 0 0,0 28.000,22.800 "/>
<text x="23.000" y="22.149"  fill="#FFFFFF" text-anchor="middle" font-size="0.80" font-family="Fira Code" font-style="normal" font-weight="700">
TODO</text>
<rect x="18.100" y="29.000" width="9.800" height="1.900" fill="#FFAA0B" stroke="none" stroke-width="0"/>
<path stroke="none" fill="#FFAA0B" d ="M 18.100,29.000 A 0.100,0.100 0 0,0 18.000,29.100 "/>
<path stroke="none" fill="#FFAA0B" d ="M 28.000,29.100 A 0.100,0.100 0 0,0 27.900,29.000 "/>
<rect x="18.000" y="29.100" width="10.000" height="1.700" fill="#FFAA0B" stroke="none" stroke-width="0"/>
<path stroke="none" fill="#FFAA0B" d ="M 18.000,30.800 A 0.100,0.100 0 0,0 18.100,30.900 "/>
<path stroke="none" fill="#FFAA0B" d ="M 27.900,30.900 A 0.100,0.100 0 0,0 28.000,30.800 "/>
<line x1="18.100" y1="29.000" x2="27.900" y2="29.000" stroke="#000000" stroke-width="0.010" />
<line x1="18.100" y1="30.900" x2="27.900" y2="30.900" stroke="#000000" stroke-width="0.010" />
<path stroke="#000000" fill="none" stroke-width="0.010"  d ="M 18.100,29.000 A 0.100,0.100 0 0,0 18.000,29.100 "/>
<path stroke="#000000" fill="none" stroke-width="0.010"  d ="M 28.000,29.100 A 0.100,0.100 0 0,0 27.900,29.000 "/>
<line x1="18.000" y1="29.100" x2="18.000" y2="30.800" stroke="#000000" stroke-width="0.010" />
<line x1="28.000" y1="29.100" x2="28.000" y2="30.800" stroke="#000000" stroke-width="0.010" />
<path stroke="#000000" fill="none" stroke-width="0.010"  d ="M 18.000,30.800 A 0.100,0.100 0 0,0 18.100,30.900 "/>
<path stroke="#000000" fill="none" stroke-width="0.010"  d ="M 27.900,30.900 A 0.100,0.100 0 0,0 28.000,30.800 "/>
<text x="23.000" y="30.149"  fill="#FFFFFF" text-anchor="middle" font-size="0.80" font-family="Fira Code" font-style="normal" font-weight="700">
DONE</text>
<line x1="23.000" y1="18.904" x2="23.000" y2="20.974" stroke="#000000" stroke-width="0.010" />
<polyline fill="none" stroke="#000000" stroke-width="0.010"  points="22.750,20.485 23.000,20.985 23.250,20.485 "/>
<line x1="23.000" y1="22.904" x2="23.000" y2="24.974" stroke="#000000" stroke-width="0.010" />
<polyline fill="none" stroke="#000000" stroke-width="0.010"  points="22.750,24.485 23.000,24.985 23.250,24.485 "/>
<line x1="23.000" y1="26.900" x2="23.000" y2="28.973" stroke="#000000" stroke-width="0.010" />
<polyline fill="none" stroke="#000000" stroke-width="0.010"  points="22.750,28.484 23.000,28.984 23.250,28.484 "/>
<path stroke="#000000" fill="none" stroke-width="0.010"  d ="M 28.005,29.709 A 54.106,54.106 0 0,0 40.775,26.913 "/>
<polyline fill="none" stroke="#000000" stroke-width="0.010"  points="40.397,27.310 40.786,26.909 40.231,26.838 "/>
<path stroke="#000000" fill="none" stroke-width="0.010"  d ="M 41.470,25.001 A 31.833,31.833 0 0,0 28.022,21.950 "/>
<polyline fill="none" stroke="#000000" stroke-width="0.010"  points="28.512,21.702 28.011,21.950 28.510,22.202 "/>
<rect x="18.100" y="13.000" width="9.800" height="1.900" fill="#AA10BB" stroke="none" stroke-width="0"/>
<path stroke="none" fill="#AA10BB" d ="M 18.100,13.000 A 0.100,0.100 0 0,0 18.000,13.100 "/>
<path stroke="none" fill="#AA10BB" d ="M 28.000,13.100 A 0.100,0.100 0 0,0 27.900,13.000 "/>
<rect x="18.000" y="13.100" width="10.000" height="1.700" fill="#AA10BB" stroke="none" stroke-width="0"/>
<path stroke="none" fill="#AA10BB" d ="M 18.000,14.800 A 0.100,0.100 0 0,0 18.100,14.900 "/>
<path stroke="none" fill="#AA10BB" d ="M 27.900,14.900 A 0.100,0.100 0 0,0 28.000,14.800 "/>
<line x1="18.100" y1="13.000" x2="27.900" y2="13.000" stroke="#000000" stroke-width="0.010" />
<line x1="18.100" y1="14.900" x2="27.900" y2="14.900" stroke="#000000" stroke-width="0.010" />
<path stroke="#000000" fill="none" stroke-width="0.010"  d ="M 18.100,13.000 A 0.100,0.100 0 0,0 18.000,13.100 "/>
<path stroke="#000000" fill="none" stroke-width="0.010"  d ="M 28.000,13.100 A 0.100,0.100 0 0,0 27.900,13.000 "/>
<line x1="18.000" y1="13.100" x2="18.000" y2="14.800" stroke="#000000" stroke-width="0.010" />
<line x1="28.000" y1="13.100" x2="28.000" y2="14.800" stroke="#000000" stroke-width="0.010" />
<path stroke="#000000" fill="none" stroke-width="0.010"  d ="M 18.000,14.800 A 0.100,0.100 0 0,0 18.100,14.900 "/>
<path stroke="#000000" fill="none" stroke-width="0.010"  d ="M 27.900,14.900 A 0.100,0.100 0 0,0 28.000,14.800 "/>
<text x="23.000" y="14.217"  fill="#FFFFFF" text-anchor="middle" font-size="0.80" font-family="Fira Code" font-style="normal" font-weight="700">
定义动态任务</text>
<line x1="23.000" y1="14.904" x2="23.000" y2="16.974" stroke="#000000" stroke-width="0.010" />
<polyline fill="none" stroke="#000000" stroke-width="0.010"  points="22.750,16.485 23.000,16.985 23.250,16.485 "/>
<line x1="23.000" y1="11.005" x2="23.000" y2="12.972" stroke="#000000" stroke-width="0.010" />
<polyline fill="none" stroke="#000000" stroke-width="0.010"  points="22.750,12.484 23.000,12.984 23.250,12.484 "/>
<line x1="25.698" y1="2.815" x2="32.155" y2="4.991" stroke="#000000" stroke-width="0.010" />
<polyline fill="none" stroke="#000000" stroke-width="0.010"  points="31.612,5.072 32.165,4.994 31.771,4.598 "/>
<line x1="32.173" y1="6.904" x2="25.999" y2="8.988" stroke="#000000" stroke-width="0.010" />
<polyline fill="none" stroke="#000000" stroke-width="0.010"  points="26.382,8.595 25.989,8.991 26.542,9.068 "/>
</svg>